# xmcd
#
# Track frame offsets:
#	150
#	9761
#	19329
#	36317
#	49320
#	62979
#	75819
#	86853
#	99474
#	109695
#	121650
#	133105
#	148355
#	158184
#	169956
#	185860
#	199874
#
# Disc length: 2802 seconds
#
# Revision: 1
# Processed by: cddbd v1.5PL3 Copyright (c) Steve Scherf et al.
# Submitted via: audiograbber 1.83.01
#
DISCID=ee0af011
DTITLE=Patsy Cline - Greatest Hits
DYEAR=1900
DGENRE=Country
TTITLE0=Back In Baby's Arms
TTITLE1=Blue Moon Of Kentucky
TTITLE2=Faded Love
TTITLE3=I Fall To Pieces
TTITLE4=He's Got You
TTITLE5=Just A Closer Walk With Thee
TTITLE6=If You Got Leaving On Your Mind
TTITLE7=Have You Ever Been Lonely
TTITLE8=Seven Lonely Days
TTITLE9=Sweet Dreams
TTITLE10=Tennessee  Waltz
TTITLE11=Wayward Wind
TTITLE12=True Love
TTITLE13=Walking After Midnight
TTITLE14=Why Can't He Be You
TTITLE15=You Belong To Me
TTITLE16=Your Cheating Heart
EXTD=
EXTT0=
EXTT1=
EXTT2=
EXTT3=
EXTT4=
EXTT5=
EXTT6=
EXTT7=
EXTT8=
EXTT9=
EXTT10=
EXTT11=
EXTT12=
EXTT13=
EXTT14=
EXTT15=
EXTT16=
PLAYORDER=
